<svg width="28" height="22" viewBox="0 0 28 22" fill="none" xmlns="http://www.w3.org/2000/svg">
<path d="M1 11C1 14.725 1.3875 16.9 1.675 18.025C1.75427 18.3302 1.90418 18.6126 2.11262 18.8493C2.32106 19.0859 2.58221 19.2703 2.875 19.3875C7.0625 20.9875 14 20.95 14 20.95C14 20.95 20.9375 20.9875 25.125 19.3875C25.4178 19.2703 25.6789 19.0859 25.8874 18.8493C26.0958 18.6126 26.2457 18.3302 26.325 18.025C26.6125 16.9 27 14.725 27 11C27 7.275 26.6125 5.1 26.325 3.975C26.2457 3.66975 26.0958 3.38741 25.8874 3.15074C25.6789 2.91407 25.4178 2.7297 25.125 2.6125C20.9375 1.0125 14 1.05 14 1.05C14 1.05 7.0625 1.0125 2.875 2.6125C2.58221 2.7297 2.32106 2.91407 2.11262 3.15074C1.90418 3.38741 1.75427 3.66975 1.675 3.975C1.3875 5.1 1 7.275 1 11Z" stroke="#F40000" stroke-width="2" stroke-linecap="round" stroke-linejoin="round"/>
</svg>
